:FULLY-SPECIFIED
:FORCE-ALL-JOINTS-BE-3DOF
:DEGREES
679
root 5.88221 20.3731 2.80942 12.444 -54.3334 -18.8826
lfemur -33.1387 1.77588 6.8296
ltibia 83.3269 0 0
lfoot -3.9495 1.97614 0
ltoes 28.9775 0 0
rfemur -33.0886 -5.8815 8.64441
rtibia 55.7559 0 0
rfoot 17.6375 -4.71973 0
rtoes 22.7381 0 0
lowerback 5.57437 -2.20822 -3.44935
upperback -0.92267 -3.21153 -1.15729
thorax -4.00238 -1.57667 0.947801
lowerneck -6.98081 -6.86222 -1.71388
upperneck 4.22787 -9.43324 5.3244
head 2.81377 -4.49895 1.47018
lclavicle -1.90524e-14 -3.92911e-15 0
lhumerus 7.36026 -26.0443 25.2443
lradius 53.1578 0 0
lwrist 27.2074 0 0
lhand -19.528 -2.37895 0
lfingers 7.12502 0 0
lthumb 6.79848 27.5245 0
rclavicle -1.90524e-14 -3.92911e-15 0
rhumerus -4.16876 -9.63873 -26.9323
rradius 108.068 0 0
rwrist -23.279 0 0
rhand -33.9271 -36.8743 0
rfingers 7.12502 0 0
rthumb -7.1028 -786.913 0
680
root 5.87967 20.4203 2.92458 12.3184 -55.7921 -18.7771
lfemur -33.3697 1.37684 7.19796
ltibia 83.8531 0 0
lfoot -3.56655 1.62589 0
ltoes 29.1991 0 0
rfemur -32.8077 -5.66657 8.34771
rtibia 55.7399 0 0
rfoot 17.7218 -5.24905 0
rtoes 23.0768 0 0
lowerback 5.60382 -2.18272 -3.39804
upperback -0.941004 -3.17743 -1.18638
thorax -4.04339 -1.55949 0.888842
lowerneck -6.97255 -6.80988 -1.71756
upperneck 4.06979 -9.3522 5.30488
head 2.7614 -4.46468 1.47473
lclavicle -1.85515e-14 -3.80168e-15 0
lhumerus 7.63577 -25.83 24.4752
lradius 53.1388 0 0
lwrist 27.2352 0 0
lhand -19.5817 -2.40963 0
lfingers 7.12502 0 0
lthumb 6.74651 27.4936 0
rclavicle -1.85515e-14 -3.80168e-15 0
rhumerus -4.69171 -9.68941 -26.4356
rradius 107.768 0 0
rwrist -22.6435 0 0
rhand -33.9201 -37.0416 0
rfingers 7.12502 0 0
rthumb -7.09649 -787.073 0
681
root 5.8767 20.4663 3.0402 12.1932 -57.2222 -18.631
lfemur -33.5984 0.983359 7.55953
ltibia 84.3663 0 0
lfoot -3.19004 1.28023 0
ltoes 29.4157 0 0
rfemur -32.5278 -5.45379 8.05664
rtibia 55.7212 0 0
rfoot 17.8002 -5.77138 0
rtoes 23.4058 0 0
lowerback 5.63246 -2.15677 -3.34651
upperback -0.958955 -3.14268 -1.21501
thorax -4.0834 -1.54199 0.830206
lowerneck -6.96432 -6.75777 -1.72073
upperneck 3.91333 -9.27161 5.2852
head 2.70953 -4.43057 1.47906
lclavicle -1.80652e-14 -3.67649e-15 0
lhumerus 7.90023 -25.6168 23.7249
lradius 53.1206 0 0
lwrist 27.262 0 0
lhand -19.6338 -2.43917 0
lfingers 7.12502 0 0
lthumb 6.69604 27.4638 0
rclavicle -1.80652e-14 -3.67649e-15 0
rhumerus -5.21051 -9.73294 -25.956
rradius 107.468 0 0
rwrist -22.0143 0 0
rhand -33.9111 -37.2054 0
rfingers 7.12502 0 0
rthumb -7.08813 -787.229 0
682
root 5.87329 20.5112 3.1563 12.0687 -58.6227 -18.443
lfemur -33.8247 0.595745 7.91406
ltibia 84.8658 0 0
lfoot -2.82025 0.939422 0
ltoes 29.6271 0 0
rfemur -32.2487 -5.24332 7.77145
rtibia 55.6996 0 0
rfoot 17.8725 -6.28636 0
rtoes 23.7247 0 0
lowerback 5.66025 -2.13035 -3.29478
upperback -0.976511 -3.10727 -1.24315
thorax -4.12238 -1.52417 0.771916
lowerneck -6.95611 -6.70591 -1.72339
upperneck 3.75858 -9.19151 5.26537
head 2.65817 -4.39663 1.48314
lclavicle -1.75941e-14 -3.55368e-15 0
lhumerus 8.15334 -25.4047 22.9942
lradius 53.1032 0 0
lwrist 27.2876 0 0
lhand -19.6843 -2.46753 0
lfingers 7.12502 0 0
lthumb 6.64709 27.4352 0
rclavicle -1.75941e-14 -3.55368e-15 0
rhumerus -5.72482 -9.76919 -25.4941
rradius 107.168 0 0
rwrist -21.3916 0 0
rhand -33.9 -37.3656 0
rfingers 7.12502 0 0
rthumb -7.07776 -787.382 0
683
root 5.86943 20.555 3.27285 11.9453 -59.9927 -18.2115
lfemur -34.0485 0.214323 8.2613
ltibia 85.3512 0 0
lfoot -2.45743 0.603727 0
ltoes 29.8332 0 0
rfemur -31.9705 -5.03532 7.4924
rtibia 55.6749 0 0
rfoot 17.9387 -6.79365 0
rtoes 24.0332 0 0
lowerback 5.68715 -2.10347 -3.24287
upperback -0.993659 -3.0712 -1.27081
thorax -4.16028 -1.50602 0.713996
lowerneck -6.94793 -6.65432 -1.72552
upperneck 3.60563 -9.11192 5.24539
head 2.60737 -4.36287 1.48698
lclavicle -1.71389e-14 -3.43335e-15 0
lhumerus 8.39481 -25.1938 22.2836
lradius 53.0866 0 0
lwrist 27.3122 0 0
lhand -19.7333 -2.49468 0
lfingers 7.12502 0 0
lthumb 6.59967 27.4077 0
rclavicle -1.71389e-14 -3.43335e-15 0
rhumerus -6.23433 -9.79807 -25.0505
rradius 106.868 0 0
rwrist -20.776 0 0
rhand -33.8869 -37.5221 0
rfingers 7.12502 0 0
rthumb -7.0654 -787.532 0
684
root 5.8651 20.5975 3.38985 11.8233 -61.3309 -17.9353
lfemur -34.2696 -0.160585 8.60099
ltibia 85.8221 0 0
lfoot -2.10185 0.273401 0
ltoes 30.0337 0 0
rfemur -31.6934 -4.82994 7.21976
rtibia 55.6472 0 0
rfoot 17.9984 -7.2929 0
rtoes 24.331 0 0
lowerback 5.71314 -2.07612 -3.19078
upperback -1.01039 -3.03446 -1.29796
thorax -4.19707 -1.48755 0.656471
lowerneck -6.93978 -6.603 -1.7271
upperneck 3.45454 -9.03287 5.22528
head 2.55713 -4.3293 1.49058
lclavicle -1.67e-14 -3.31564e-15 0
lhumerus 8.62435 -24.9842 21.5938
lradius 53.0709 0 0
lwrist 27.3357 0 0
lhand -19.7806 -2.52057 0
lfingers 7.12502 0 0
lthumb 6.55379 27.3815 0
rclavicle -1.67e-14 -3.31564e-15 0
rhumerus -6.73871 -9.81944 -24.6256
rradius 106.568 0 0
rwrist -20.1679 0 0
rhand -33.8717 -37.6748 0
rfingers 7.12502 0 0
rthumb -7.05108 -787.677 0
685
root 5.86029 20.6388 3.50729 11.7032 -62.6366 -17.6129
lfemur -34.488 -0.528659 8.93287
ltibia 86.2779 0 0
lfoot -1.75377 -0.0512996 0
ltoes 30.2286 0 0
rfemur -31.4174 -4.62734 6.95378
rtibia 55.6163 0 0
rfoot 18.0515 -7.78378 0
rtoes 24.6178 0 0
lowerback 5.73816 -2.04831 -3.13853
upperback -1.02668 -2.99707 -1.32458
thorax -4.2327 -1.46876 0.599366
lowerneck -6.93165 -6.55198 -1.7281
upperneck 3.30541 -8.95439 5.20504
head 2.5075 -4.29594 1.49392
lclavicle -1.62783e-14 -3.20066e-15 0
lhumerus 8.84165 -24.7759 20.9252
lradius 53.0561 0 0
lwrist 27.3581 0 0
lhand -19.8264 -2.54517 0
lfingers 7.12502 0 0
lthumb 6.50944 27.3565 0
rclavicle -1.62783e-14 -3.20066e-15 0
rhumerus -7.23764 -9.83322 -24.2201
rradius 106.268 0 0
rwrist -19.5677 0 0
rhand -33.8545 -37.8236 0
rfingers 7.12502 0 0
rthumb -7.03483 -787.819 0
686
root 5.855 20.6788 3.62516 11.5854 -63.9085 -17.243
lfemur -34.7035 -0.889576 9.25669
ltibia 86.7182 0 0
lfoot -1.41346 -0.370117 0
ltoes 30.4175 0 0
rfemur -31.1426 -4.42766 6.69472
rtibia 55.5822 0 0
rfoot 18.0979 -8.26593 0
rtoes 24.8933 0 0
lowerback 5.7622 -2.02004 -3.08614
upperback -1.04252 -2.95901 -1.35065
thorax -4.26713 -1.44964 0.542705
lowerneck -6.92355 -6.50127 -1.72852
upperneck 3.15833 -8.87651 5.18468
head 2.45849 -4.26279 1.497
lclavicle -1.58742e-14 -3.08854e-15 0
lhumerus 9.04641 -24.5691 20.2786
lradius 53.0422 0 0
lwrist 27.3795 0 0
lhand -19.8705 -2.56844 0
lfingers 7.12502 0 0
lthumb 6.46666 27.3329 0
rclavicle -1.58742e-14 -3.08854e-15 0
rhumerus -7.73079 -9.83928 -23.8344
rradius 105.968 0 0
rwrist -18.9758 0 0
rhand -33.8354 -37.9684 0
rfingers 7.12502 0 0
rthumb -7.01668 -787.957 0
687
root 5.84921 20.7175 3.74346 11.4701 -65.1458 -16.8242
lfemur -34.916 -1.24302 9.57219
ltibia 87.1424 0 0
lfoot -1.08119 -0.682794 0
ltoes 30.6004 0 0
rfemur -30.869 -4.23107 6.44283
rtibia 55.5447 0 0
rfoot 18.1373 -8.73902 0
rtoes 25.1572 0 0
lowerback 5.7852 -1.9913 -3.03363
upperback -1.05791 -2.92028 -1.37617
thorax -4.30033 -1.43019 0.486512
lowerneck -6.91547 -6.45089 -1.72833
upperneck 3.01337 -8.79925 5.16421
head 2.41014 -4.22987 1.49982
lclavicle -1.54885e-14 -2.97939e-15 0
lhumerus 9.23835 -24.3638 19.6546
lradius 53.0292 0 0
lwrist 27.3997 0 0
lhand -19.9131 -2.59035 0
lfingers 7.12502 0 0
lthumb 6.42543 27.3105 0
rclavicle -1.54885e-14 -2.97939e-15 0
rhumerus -8.21783 -9.83752 -23.4692
rradius 105.669 0 0
rwrist -18.3927 0 0
rhand -33.8143 -38.109 0
rfingers 7.12502 0 0
rthumb -6.99664 -788.091 0
